# xmcd CD database file
#
# Track frame offsets:
#	150
#	11607
#	23082
#	36652
#	50430
#	63597
#	75175
#	87257
#	97057
#	109605
#
# Disc length: 1627 seconds
#
# Revision: 1
# Processed by: cddbd v1.5.1PL0 Copyright (c) Steve Scherf et al.
# Submitted via: jetAudio 5
#
DISCID=7606590a
DTITLE=John Lee Hooker - Dueling Blues [CD2]
DYEAR=1900
DGENRE=
TTITLE0=Boom Boom
TTITLE1=Hard Headed Woman
TTITLE2=Trouble Blues
TTITLE3=Road Is So Rough
TTITLE4=Baby Lee
TTITLE5=Little Wheel
TTITLE6=Whiskey And Wimmen
TTITLE7=Onions
TTITLE8=Hobo Blues
TTITLE9=I'm So Excited
EXTD=
EXTT0=
EXTT1=
EXTT2=
EXTT3=
EXTT4=
EXTT5=
EXTT6=
EXTT7=
EXTT8=
EXTT9=
PLAYORDER=
